HIERARCHY
ROOT Hips
{
	OFFSET 0.00000 0.00000 0.00000
	CHANNELS 6 Xposition Yposition Zposition Zrotation Yrotation Xrotation 
	JOINT LHipJoint
	{
		OFFSET 0 0 0
		CHANNELS 3 Zrotation Yrotation Xrotation
		JOINT LeftHip
		{
			OFFSET 1.56741 -1.82513 0.67319
			CHANNELS 3 Zrotation Yrotation Xrotation
			JOINT LeftKnee
			{
				OFFSET 2.35708 -6.47604 0.00000
				CHANNELS 3 Zrotation Yrotation Xrotation
				JOINT LeftAnkle
				{
					OFFSET 2.70636 -7.43567 0.00000
					CHANNELS 3 Zrotation Yrotation Xrotation
					JOINT LeftToe
					{
						OFFSET 0.20427 -0.56122 2.08535
						CHANNELS 3 Zrotation Yrotation Xrotation
						End Site
						{
							OFFSET 0.00000 -0.00000 1.08535
						}
					}
				}
			}
		}
	}
	JOINT RHipJoint
	{
		OFFSET 0 0 0
		CHANNELS 3 Zrotation Yrotation Xrotation
		JOINT RightHip
		{
			OFFSET -1.51422 -1.82513 0.67319
			CHANNELS 3 Zrotation Yrotation Xrotation
			JOINT RightKnee
			{
				OFFSET -2.48824 -6.83638 0.00000
				CHANNELS 3 Zrotation Yrotation Xrotation
				JOINT RightAnkle
				{
					OFFSET -2.70033 -7.41909 0.00000
					CHANNELS 3 Zrotation Yrotation Xrotation
					JOINT RightToe
					{
						OFFSET -0.19750 -0.54263 2.22151
						CHANNELS 3 Zrotation Yrotation Xrotation
						End Site
						{
							OFFSET -0.00000 -0.00000 1.14915
						}
					}
				}
			}
		}
	}
	JOINT lowerback
	{
		OFFSET 0 0 0
		CHANNELS 3 Zrotation Yrotation Xrotation
		JOINT Chest
		{
			OFFSET -0.01567 2.12874 -0.15842
			CHANNELS 3 Zrotation Yrotation Xrotation
			JOINT Chest2
			{
				OFFSET 0.06098 2.13326 -0.01043
				CHANNELS 3 Zrotation Yrotation Xrotation
				JOINT lowerneck
				{
					OFFSET 0 0 0
					CHANNELS 3 Zrotation Yrotation Xrotation
					JOINT Neck
					{
						OFFSET -0.05040 1.78432 0.13387
						CHANNELS 3 Zrotation Yrotation Xrotation
						JOINT Head
						{
							OFFSET -0.00180 1.76880 -0.33303
							CHANNELS 3 Zrotation Yrotation Xrotation
							End Site
							{
								OFFSET 0.00734 1.81249 -0.12719
							}
						}
					}
				}
				JOINT LeftCollar
				{
					OFFSET 0 0 0
					CHANNELS 3 Zrotation Yrotation Xrotation
					JOINT LeftShoulder
					{
						OFFSET 3.72199 0.94188 -0.54317
CHANNELS 3 Zrotation Xrotation Yrotation
						JOINT LeftElbow
						{
OFFSET 0 -5.146010 0.000000
CHANNELS 3 Zrotation Xrotation Yrotation
							JOINT LeftWrist
							{
OFFSET 0 -3.644520 -0.000000
CHANNELS 3 Zrotation Xrotation Yrotation
								JOINT lhand
								{
									OFFSET 0 0 0
CHANNELS 3 Zrotation Xrotation Yrotation
									JOINT LFingers
									{
OFFSET 0 -0.562280 0.000000
CHANNELS 3 Zrotation Xrotation Yrotation
										End Site
										{
OFFSET 0 -0.453320 0.000000
										}
									}
								}
								JOINT LThumb
								{
OFFSET 0 0.000000 0.000000
CHANNELS 3 Zrotation Xrotation Yrotation
									End Site
									{
OFFSET 0 -0.460250 0.460250
									}
								}
							}
						}
					}
				}
				JOINT RightCollar
				{
					OFFSET 0 0 0
					CHANNELS 3 Zrotation Yrotation Xrotation
					JOINT RightShoulder
					{
						OFFSET -3.30253 1.22679 -0.46941
CHANNELS 3 Zrotation Xrotation Yrotation
						JOINT RightElbow
						{
OFFSET 0 -5.339130 0.000000
CHANNELS 3 Zrotation Xrotation Yrotation
							JOINT RightWrist
							{
OFFSET 0 -3.564780 -0.000000
CHANNELS 3 Zrotation Xrotation Yrotation
								JOINT rhand
								{
									OFFSET 0 0 0
CHANNELS 3 Zrotation Xrotation Yrotation
									JOINT RFingers
									{
OFFSET 0 -0.857470 0.000000
CHANNELS 3 Zrotation Xrotation Yrotation
										End Site
										{
OFFSET 0 -0.691320 0.000000
										}
									}
								}
								JOINT RThumb
								{
OFFSET 0 0.000000 0.000000
CHANNELS 3 Zrotation Xrotation Yrotation
									End Site
									{
OFFSET 0 -0.701870 0.701870
									}
								}
							}
						}
					}
				}
			}
		}
	}
}
MOTION
Frames: 8
Frame Time: 0.008333333333333333
-8.670600 17.503500 -14.127000 -0.443200 -16.387800 6.649800 0.000000 0.000000 0.000000 -19.611600 -6.978900 -14.661500 3.002800 10.699600 31.273300 0.947700 1.064000 -18.807100 0.599500 -4.956700 -13.785000 0.000000 0.000000 0.000000 23.518600 10.789300 -17.643900 -4.259400 -12.497800 37.516600 -1.120500 -2.560600 -21.069500 -0.443200 -4.271700 11.842400 -1.627000 -1.527100 5.263300 3.398200 -2.069200 1.303100 4.554700 -1.036000 -1.423400 -3.847800 0.707500 -14.266900 -2.452100 2.654100 28.106800 0.116100 0.431200 11.520800 0.000000 -0.000000 0.000000 0.090700 -1.456400 -26.783600 21.943900 -32.913600 6.555300 11.638200 7.300300 -22.224500 0.000000 0.000000 0.000000 -7.125000 0.000000 0.000000 -17.493100 51.777900 2.995900 0.000000 -0.000000 0.000000 -8.504600 6.604300 27.831800 -41.543600 -48.958300 -19.595700 161.221200 43.793800 53.596100 0.000000 0.000000 0.000000 7.125000 0.000000 -0.000000 -10.581900 4.413400 -168.442700
-8.800470 17.449432 -14.005663 -1.254016 -14.227439 5.987518 0.000000 0.000000 0.000000 -17.833871 -5.322484 -18.776788 4.475188 12.766529 38.501937 0.893278 -2.284811 -17.235293 0.689299 -5.306765 -14.785762 0.000000 0.000000 0.000000 25.110885 8.865094 -16.580616 -4.227562 -12.457162 37.369048 -1.216445 -3.051657 -22.136135 -0.449592 -4.297582 11.916001 0.849035 -1.438683 5.985864 3.254943 -1.855374 2.896451 2.986737 -0.948365 -0.289568 -4.068797 2.068901 -11.993319 -2.336829 4.446759 27.246263 0.407795 1.294919 10.717347 0.000000 0.000000 0.000000 -0.109839 -2.931875 -30.106303 22.101327 -33.091371 6.641072 11.983940 5.952918 -22.431987 0.000000 0.000000 0.000000 -7.125000 0.000000 0.000000 -17.258281 52.035313 3.064882 0.000000 0.000000 0.000000 -8.092911 4.734502 27.009013 -40.059196 -48.104962 -18.483284 163.120840 38.331105 53.572941 0.000000 0.000000 0.000000 7.125000 0.000000 0.000000 -11.313377 4.644023 -167.571445
-8.882497 17.466548 -13.799890 -1.162904 -12.256734 6.028534 0.000000 0.000000 0.000000 -16.751000 -4.730025 -24.143068 6.094331 14.519052 45.358989 0.701198 -2.884799 -15.102892 1.364081 -7.391963 -20.881950 0.000000 0.000000 0.000000 25.453693 8.224769 -15.591992 -4.081702 -12.268297 36.687824 -1.144079 -4.790956 -22.461968 -0.383960 -3.979340 11.018427 1.297738 -0.865405 6.920079 3.756839 -1.049474 3.340990 3.220178 -0.547242 -0.383255 -4.225044 2.719455 -10.773850 -3.738405 5.771598 27.917839 0.079826 1.719202 10.777623 0.000000 0.000000 0.000000 -2.397869 -1.917179 -31.797964 22.625227 -33.676343 6.929395 11.320790 4.654375 -22.306393 0.000000 0.000000 0.000000 -7.125000 0.000000 0.000000 -17.836651 51.803417 3.069341 0.000000 0.000000 0.000000 -10.439384 4.167598 27.781747 -36.341137 -45.746385 -15.766388 158.729008 42.771713 52.879136 0.000000 0.000000 0.000000 7.125000 0.000000 0.000000 -9.489257 4.787708 -169.613294
-8.907675 17.566005 -13.512593 -0.688815 -8.935368 7.178764 0.000000 0.000000 0.000000 -15.356986 -6.740071 -28.676644 6.139897 14.562501 45.540475 0.526813 -1.616744 -13.246631 0.434334 -3.897953 -10.844122 0.000000 0.000000 0.000000 25.173227 7.176001 -15.117526 -3.745063 -11.813148 35.074174 -1.042481 -6.464493 -22.652756 -0.304113 -3.544268 9.798024 1.748141 -0.631006 7.283576 3.843042 -0.669869 2.924976 3.037752 -0.348692 -1.035833 -4.157421 3.430248 -10.636823 -4.303380 7.012842 28.711564 0.020021 2.206958 11.086539 0.000000 0.000000 0.000000 -3.185130 0.536213 -33.684023 23.363999 -34.484432 7.343317 13.168046 4.660239 -21.539878 0.000000 0.000000 0.000000 -7.125000 0.000000 0.000000 -15.711909 51.369927 2.518390 0.000000 0.000000 0.000000 -12.028195 5.826436 28.376068 -36.043505 -45.542929 -15.553622 157.407845 44.821128 51.766039 0.000000 0.000000 0.000000 7.125000 0.000000 0.000000 -8.753053 5.679341 -170.314883
-8.866678 17.670487 -13.144165 -0.324846 -6.086575 8.065131 0.000000 0.000000 0.000000 -13.815364 -8.325144 -30.155297 3.763168 11.835501 35.156388 0.459021 -3.207313 -12.100766 0.981088 -6.304845 -17.671571 0.000000 0.000000 0.000000 24.714131 6.787869 -13.968808 -3.462032 -11.407849 33.667949 -0.830753 -8.212420 -22.080262 -0.195815 -2.845644 7.849567 2.321152 -0.043340 7.958524 3.478158 0.158374 3.380905 2.271147 0.071518 -0.968802 -4.863243 3.121629 -10.774308 -4.004068 6.588320 27.315336 0.193669 2.050325 10.550846 0.000000 0.000000 0.000000 -2.549354 0.611503 -34.887627 23.522621 -34.655245 7.433321 12.103454 1.439049 -24.605051 0.000000 0.000000 0.000000 -7.125000 0.000000 0.000000 -18.240190 54.137012 4.203150 0.000000 0.000000 0.000000 -12.002500 4.767144 27.198663 -35.556781 -45.205523 -15.207139 157.798364 42.724070 51.790517 0.000000 0.000000 0.000000 7.125000 0.000000 0.000000 -8.914183 5.717916 -170.127046
-8.765070 17.696022 -12.704194 -0.249180 -1.731755 9.259283 0.000000 0.000000 0.000000 -12.532479 -11.593891 -30.707938 1.256974 7.106527 20.031806 0.247060 3.137638 -11.086542 1.368758 -7.404237 -20.918642 0.000000 0.000000 0.000000 24.895149 6.462904 -12.805019 -3.200122 -11.012085 32.320753 -0.615129 -11.584448 -23.189708 -0.116099 -2.196561 6.049214 2.782820 0.151609 8.439171 3.363230 0.464871 3.695480 1.866081 0.232008 -0.910589 -4.957556 2.447623 -12.032962 -3.580019 5.758570 28.507500 0.292602 1.652058 11.235070 0.000000 0.000000 0.000000 -1.594887 -0.222335 -34.976222 23.426903 -34.552360 7.379046 13.437774 4.119987 -23.713978 0.000000 0.000000 0.000000 -7.125000 0.000000 0.000000 -16.462565 53.526184 3.526454 0.000000 0.000000 0.000000 -12.158296 3.219091 25.745825 -36.196086 -45.647532 -15.662583 160.054497 39.643792 51.962867 0.000000 0.000000 0.000000 7.125000 0.000000 0.000000 -9.851770 5.875229 -169.035453
-8.542342 17.582294 -12.111730 -1.357671 0.909540 10.187705 0.000000 0.000000 0.000000 -11.216108 -14.772313 -31.379793 0.489335 4.484849 12.445098 -0.395110 15.717977 -17.699350 0.788190 -5.665534 -15.817510 0.000000 0.000000 0.000000 25.895702 5.516919 -10.704099 -2.887331 -10.510357 30.645873 -0.553617 -13.373644 -24.515424 -0.028888 -1.096854 3.015280 3.513437 0.473104 7.898528 3.779098 0.887537 4.380118 1.859441 0.459574 0.098878 -5.629768 2.011811 -12.155382 -3.539999 5.330890 28.588001 0.370063 1.397611 11.282422 0.000000 0.000000 0.000000 -1.505077 -0.871308 -35.478790 23.965252 -35.127341 7.686598 17.481266 0.183968 -20.553465 0.000000 0.000000 0.000000 -7.125000 0.000000 0.000000 -11.138048 51.104225 1.694821 0.000000 0.000000 0.000000 -13.614344 0.860131 25.615111 -35.211179 -44.962245 -14.962359 154.949958 46.647437 50.182692 0.000000 0.000000 0.000000 7.125000 0.000000 0.000000 -7.428044 6.805218 -171.677626
-8.230768 17.477858 -11.377841 -2.954187 1.014916 10.765937 0.000000 0.000000 0.000000 -11.657484 -12.486814 -33.230135 0.652815 5.167955 14.388271 -0.999642 18.326880 -13.167547 0.733995 -5.473616 -15.264416 0.000000 0.000000 0.000000 26.660170 4.291846 -8.339401 -2.680732 -10.159364 29.494357 -0.608076 -13.239417 -24.832526 -0.003706 0.390071 -1.071703 3.055167 1.491028 8.440410 3.864244 2.240832 4.300428 2.083545 1.123295 -0.313259 -3.928172 2.476456 -10.796812 -5.154366 5.983946 28.591188 -0.441097 1.715238 11.114713 0.000000 0.000000 0.000000 -1.688568 -0.004796 -33.682179 25.045889 -36.250611 8.317098 11.172408 3.210955 -26.803461 0.000000 0.000000 0.000000 -7.125000 0.000000 0.000000 -20.449408 56.032875 5.706828 0.000000 0.000000 0.000000 -13.351015 -0.614274 24.574442 -34.625911 -44.543081 -14.550354 154.399873 49.104477 50.096498 0.000000 0.000000 0.000000 7.125000 0.000000 0.000000 -7.181477 6.782230 -171.960411
